<?xml version="1.0" encoding="utf-8"?><svg viewBox="0 0 108 30" xmlns="http://www.w3.org/2000/svg" xmlns:xlink="http://www.w3.org/1999/xlink"><style>:root>svg{display:none}:root>svg:target{display:block}</style><svg fill="none" viewBox="0 0 10 10" id="icons--arrow-sel" xmlns="http://www.w3.org/2000/svg"><path d="M5 8c-.12 0-.235-.02-.347-.057a.85.85 0 0 1-.28-.153L.246 4.28A.67.67 0 0 1 0 3.744a.67.67 0 0 1 .247-.534A.935.935 0 0 1 .874 3c.255 0 .464.07.628.21L5 6.187 8.498 3.21A.935.935 0 0 1 9.126 3c.254 0 .463.07.627.21a.67.67 0 0 1 .247.534.67.67 0 0 1-.247.535L5.628 7.79a.807.807 0 0 1-.292.162A1.142 1.142 0 0 1 5 8z" fill="#5DB7DE"/></svg><svg fill="none" viewBox="0 0 25 24" id="icons--search" xmlns="http://www.w3.org/2000/svg"><path d="M17.972 15.73H16.97l-.355-.342a8.23 8.23 0 0 0 1.875-6.761c-.595-3.52-3.534-6.331-7.082-6.762A8.246 8.246 0 0 0 2.577 7.37a8.232 8.232 0 0 0-.379 3.701c.431 3.546 3.244 6.483 6.766 7.078a8.24 8.24 0 0 0 6.765-1.873l.343.354v1l5.384 5.382a1.34 1.34 0 0 0 1.888 0c.52-.52.52-1.368 0-1.887l-5.372-5.394zm-7.602 0a5.692 5.692 0 0 1-5.701-5.698 5.692 5.692 0 0 1 5.701-5.698 5.692 5.692 0 0 1 5.702 5.698 5.692 5.692 0 0 1-5.702 5.698z" fill="#3D348B"/></svg><svg fill="none" viewBox="0 0 108 30" id="logo" xmlns="http://www.w3.org/2000/svg"><path fill-rule="evenodd" clip-rule="evenodd" d="m101.612 30-3.628-14.422c-.438-1.73-.727-3.461-1.016-5.048h-.147c-.289 1.731-.435 3.318-.87 5.192L92.32 30h-6.242L94.353.002h4.936L108 30h-6.388zM6.387.002l3.63 14.422c.58 1.73.725 3.462 1.015 5.047h.146c.29-1.73.435-3.462.87-5.192L15.679.002h6.242L13.646 30H8.71L0 .002h6.387zm20.031 0h5.952V30h-5.952V.002zm39.631 0 3.047 17.74L71.564.002h7.984L82.596 30H76.5L75.048 8.367l-1.016 7.355L71.564 30h-4.645l-2.903-14.422-1.017-6.634v-.577h-.145L61.984 30h-6.389L58.21.002h7.84zm-18.872 0c-1.016.721-1.74 2.018-2.322 3.316-1.596 3.606.145 6.49 1.596 9.086.146.289.438.721.581 1.154 3.34 5.48 4.5 9.518 2.179 15.286L48.63 30h-7.259c.871-.722 1.741-1.73 2.177-2.885 1.743-3.894-.29-7.499-2.177-11.106-2.176-4.182-4.5-8.508-2.032-14.421.146-.577.727-1.587.727-1.587h7.111v.002z" fill="#3D348B"/></svg></svg>