<?xml version="1.0" encoding="utf-8"?><svg viewBox="0 0 162 80" xmlns="http://www.w3.org/2000/svg" xmlns:xlink="http://www.w3.org/1999/xlink"><style>:root>svg{display:none}:root>svg:target{display:block}</style><svg fill="none" viewBox="0 0 10 10" id="icons--arrow-bread" xmlns="http://www.w3.org/2000/svg"><path d="M4.478 7.746 6.74 5.582a.864.864 0 0 0 .196-.27A.754.754 0 0 0 7 5a.754.754 0 0 0-.065-.312.864.864 0 0 0-.196-.27L4.48 2.254c-.276-.263-.591-.322-.946-.176-.355.145-.533.405-.533.78v4.284c0 .375.178.635.533.78.355.146.67.087.945-.176z" fill="#333"/></svg><svg fill="none" viewBox="0 0 10 10" id="icons--arrow-sel" xmlns="http://www.w3.org/2000/svg"><path d="M5 8c-.12 0-.235-.02-.347-.057a.85.85 0 0 1-.28-.153L.246 4.28A.67.67 0 0 1 0 3.744a.67.67 0 0 1 .247-.534A.935.935 0 0 1 .874 3c.255 0 .464.07.628.21L5 6.187 8.498 3.21A.935.935 0 0 1 9.126 3c.254 0 .463.07.627.21a.67.67 0 0 1 .247.534.67.67 0 0 1-.247.535L5.628 7.79a.807.807 0 0 1-.292.162A1.142 1.142 0 0 1 5 8z" fill="#5DB7DE"/></svg><svg fill="none" viewBox="0 0 15 15" id="icons--arrow_form" xmlns="http://www.w3.org/2000/svg"><path d="m3.382 6.717 3.244 3.392c.125.13.26.228.406.293.146.065.302.098.468.098.166 0 .322-.033.468-.098.146-.065.28-.163.406-.293l3.244-3.392c.396-.413.484-.885.265-1.417-.218-.533-.608-.8-1.17-.8H4.287c-.561 0-.951.267-1.169.8-.219.532-.13 1.004.265 1.417z" fill="#3D348B"/></svg><svg fill="none" viewBox="0 0 30 30" id="icons--button_form" xmlns="http://www.w3.org/2000/svg"><circle cx="15" cy="15" r="14" stroke="#3D348B" stroke-width="2"/><path d="M14.5 18.705v-3H7.81l-.022-1.508H14.5v-2.992l3.75 3.75-3.75 3.75z" fill="#3D348B"/></svg><svg fill="none" viewBox="0 0 30 30" id="icons--email" xmlns="http://www.w3.org/2000/svg"><path d="M25 5H5a2.497 2.497 0 0 0-2.487 2.5l-.013 15C2.5 23.875 3.625 25 5 25h20c1.375 0 2.5-1.125 2.5-2.5v-15C27.5 6.125 26.375 5 25 5zm-.5 5.313-8.838 5.524c-.4.25-.925.25-1.325 0L5.5 10.314a1.063 1.063 0 1 1 1.125-1.8L15 13.75l8.375-5.238a1.062 1.062 0 1 1 1.125 1.8z" fill="#fff"/></svg><svg fill="none" viewBox="0 0 30 30" id="icons--link_arrow" xmlns="http://www.w3.org/2000/svg"><circle cx="15" cy="15" r="14" stroke="#fff" stroke-width="2"/><path d="M14.5 18.705v-3H7.81l-.022-1.508H14.5v-2.992l3.75 3.75-3.75 3.75z" fill="#fff"/></svg><svg fill="none" viewBox="0 0 162 30" id="icons--link_arrow2" xmlns="http://www.w3.org/2000/svg"><path d="M8.496 12.408c0 .277-.037.555-.112.832a2.25 2.25 0 0 1-.336.768c-.16.224-.368.427-.624.608a2.83 2.83 0 0 1-.928.384v.096c.32.053.624.144.912.272.288.128.539.304.752.528.213.224.379.496.496.816.128.32.192.699.192 1.136 0 .576-.123 1.077-.368 1.504a3.034 3.034 0 0 1-.992 1.024 4.42 4.42 0 0 1-1.392.592 6.769 6.769 0 0 1-1.616.192h-.704c-.277 0-.581-.01-.912-.032-.32-.01-.65-.032-.992-.064a7.114 7.114 0 0 1-.912-.144V9.88a17.734 17.734 0 0 1 1.536-.176 24.811 24.811 0 0 1 1.856-.064c.523 0 1.03.043 1.52.128a4.13 4.13 0 0 1 1.328.416c.395.203.71.485.944.848.235.363.352.821.352 1.376zm-4 6.944c.267 0 .523-.032.768-.096.256-.064.48-.16.672-.288.192-.139.347-.31.464-.512.117-.203.176-.443.176-.72 0-.352-.07-.63-.208-.832a1.351 1.351 0 0 0-.544-.464 2.133 2.133 0 0 0-.752-.224 7.253 7.253 0 0 0-.832-.048H3.072v3.088a.991.991 0 0 0 .256.048l.368.032c.139 0 .277.005.416.016h.384zm-.72-4.848a9 9 0 0 0 .512-.016c.203-.01.368-.027.496-.048a2.82 2.82 0 0 0 1.04-.576c.299-.256.448-.592.448-1.008 0-.277-.053-.507-.16-.688a1.199 1.199 0 0 0-.432-.432 1.71 1.71 0 0 0-.592-.224 3.754 3.754 0 0 0-.704-.064c-.277 0-.533.005-.768.016-.235.01-.416.027-.544.048v2.992h.704zm15.821 6.032c-.341.245-.779.421-1.312.528a8.059 8.059 0 0 1-1.616.16 6.03 6.03 0 0 1-1.92-.304 4.228 4.228 0 0 1-1.584-1.008c-.458-.47-.826-1.072-1.104-1.808-.267-.747-.4-1.648-.4-2.704 0-1.099.15-2.016.448-2.752.31-.747.704-1.344 1.184-1.792a4.302 4.302 0 0 1 1.632-.976 5.548 5.548 0 0 1 1.792-.304c.64 0 1.179.043 1.616.128a5.92 5.92 0 0 1 1.104.304l-.432 1.856a3.176 3.176 0 0 0-.88-.256 7.807 7.807 0 0 0-1.216-.08c-.885 0-1.6.315-2.144.944-.533.63-.8 1.605-.8 2.928 0 .576.064 1.104.192 1.584.128.47.32.875.576 1.216.267.33.592.592.976.784.395.181.848.272 1.36.272.48 0 .886-.048 1.216-.144a3.59 3.59 0 0 0 .864-.368l.448 1.792zM22.551 9.8h6.64v1.952h-4.448v2.608h4.048v1.952h-4.048v2.736h4.528V21h-6.72V9.8zm21.894 6.512h-4.096V21h-2.192V9.8h2.192v4.56h4.096V9.8h2.192V21h-2.192v-4.688zm5.382-.912c0-1.867.41-3.301 1.232-4.304.821-1.013 1.994-1.52 3.52-1.52.8 0 1.498.139 2.096.416a3.949 3.949 0 0 1 1.488 1.184c.394.512.688 1.125.88 1.84.192.715.288 1.51.288 2.384 0 1.867-.416 3.307-1.248 4.32-.822 1.003-1.99 1.504-3.504 1.504-.81 0-1.515-.139-2.112-.416a3.947 3.947 0 0 1-1.488-1.184c-.384-.512-.672-1.125-.864-1.84-.192-.715-.288-1.51-.288-2.384zm2.304 0c0 .565.048 1.088.144 1.568.096.47.24.875.432 1.216.202.341.458.608.768.8.31.192.677.288 1.104.288.778 0 1.381-.304 1.808-.912.426-.608.64-1.595.64-2.96 0-.544-.048-1.05-.144-1.52a4.087 4.087 0 0 0-.416-1.232 2.143 2.143 0 0 0-.752-.816c-.31-.203-.688-.304-1.136-.304-.779 0-1.382.315-1.808.944-.427.619-.64 1.595-.64 2.928zm17.903-2.992c0 .277-.038.555-.113.832a2.25 2.25 0 0 1-.336.768c-.16.224-.367.427-.623.608-.257.17-.566.299-.928.384v.096c.32.053.623.144.911.272.289.128.54.304.753.528.213.224.378.496.496.816.127.32.191.699.191 1.136 0 .576-.122 1.077-.368 1.504a3.034 3.034 0 0 1-.992 1.024 4.41 4.41 0 0 1-1.392.592 6.769 6.769 0 0 1-1.615.192h-.704c-.278 0-.582-.01-.912-.032-.32-.01-.651-.032-.992-.064a7.112 7.112 0 0 1-.912-.144V9.88a17.734 17.734 0 0 1 1.536-.176 24.818 24.818 0 0 1 1.855-.064c.523 0 1.03.043 1.52.128a4.13 4.13 0 0 1 1.328.416c.395.203.71.485.945.848.234.363.352.821.352 1.376zm-4 6.944c.266 0 .522-.032.767-.096.257-.064.48-.16.672-.288a1.66 1.66 0 0 0 .465-.512c.117-.203.175-.443.175-.72 0-.352-.069-.63-.207-.832a1.351 1.351 0 0 0-.544-.464 2.133 2.133 0 0 0-.752-.224 7.253 7.253 0 0 0-.832-.048h-1.169v3.088a.991.991 0 0 0 .257.048l.368.032c.138 0 .277.005.416.016h.383zm-.72-4.848c.149 0 .32-.005.512-.016a4.61 4.61 0 0 0 .496-.048 2.82 2.82 0 0 0 1.04-.576c.298-.256.448-.592.448-1.008 0-.277-.054-.507-.16-.688a1.2 1.2 0 0 0-.433-.432 1.71 1.71 0 0 0-.591-.224 3.754 3.754 0 0 0-.705-.064c-.277 0-.533.005-.768.016-.234.01-.416.027-.544.048v2.992h.705zm7.885.896c0-1.867.41-3.301 1.232-4.304.821-1.013 1.994-1.52 3.52-1.52.8 0 1.498.139 2.096.416a3.947 3.947 0 0 1 1.488 1.184c.394.512.688 1.125.88 1.84.192.715.288 1.51.288 2.384 0 1.867-.416 3.307-1.248 4.32-.822 1.003-1.99 1.504-3.504 1.504-.811 0-1.515-.139-2.112-.416a3.949 3.949 0 0 1-1.488-1.184c-.384-.512-.672-1.125-.864-1.84-.192-.715-.288-1.51-.288-2.384zm2.304 0c0 .565.048 1.088.144 1.568.096.47.24.875.432 1.216.202.341.458.608.768.8.309.192.677.288 1.104.288.778 0 1.381-.304 1.808-.912.426-.608.64-1.595.64-2.96 0-.544-.048-1.05-.144-1.52a4.084 4.084 0 0 0-.416-1.232 2.143 2.143 0 0 0-.752-.816c-.31-.203-.688-.304-1.136-.304-.779 0-1.382.315-1.808.944-.427.619-.64 1.595-.64 2.928zm17.95 5.136c-.341.245-.778.421-1.312.528a8.06 8.06 0 0 1-1.616.16 6.03 6.03 0 0 1-1.92-.304 4.226 4.226 0 0 1-1.584-1.008c-.458-.47-.826-1.072-1.104-1.808-.266-.747-.4-1.648-.4-2.704 0-1.099.15-2.016.448-2.752.31-.747.704-1.344 1.184-1.792a4.3 4.3 0 0 1 1.632-.976 5.547 5.547 0 0 1 1.792-.304c.64 0 1.179.043 1.616.128a5.92 5.92 0 0 1 1.104.304l-.432 1.856a3.178 3.178 0 0 0-.88-.256 7.808 7.808 0 0 0-1.216-.08c-.885 0-1.6.315-2.144.944-.533.63-.8 1.605-.8 2.928 0 .576.064 1.104.192 1.584.128.47.32.875.576 1.216.267.33.592.592.976.784.395.181.848.272 1.36.272.48 0 .886-.048 1.216-.144.331-.096.619-.219.864-.368l.448 1.792zm10.812-8.784h-3.264V21h-2.192v-9.248h-3.28V9.8h8.736v1.952zm9.27 3.04.128-1.456h-.08l-.752 1.504-4.176 6.16h-1.648V9.8h2.192v6.096l-.16 1.504h.096l.784-1.552 4.176-6.048h1.632V21h-2.192v-6.208z" fill="#3D348B"/><circle cx="147" cy="15" r="14" stroke="#3D348B" stroke-width="2"/><path d="M146.5 18.705v-3h-6.69l-.023-1.508h6.713v-2.992l3.75 3.75-3.75 3.75z" fill="#3D348B"/></svg><svg fill="none" viewBox="0 0 30 30" id="icons--local" xmlns="http://www.w3.org/2000/svg"><path d="M15 1.875A10.325 10.325 0 0 0 4.688 12.188a10.208 10.208 0 0 0 2.077 6.187s.281.37.327.424L15 28.125l7.912-9.33c.04-.05.323-.42.323-.42v-.003a10.205 10.205 0 0 0 2.078-6.184A10.324 10.324 0 0 0 15 1.874zm0 14.063a3.75 3.75 0 1 1 0-7.5 3.75 3.75 0 0 1 0 7.5z" fill="#fff"/></svg><svg fill="none" viewBox="0 0 30 30" id="icons--phone" xmlns="http://www.w3.org/2000/svg"><path d="M8.275 13.488c1.8 3.537 4.7 6.425 8.237 8.237l2.75-2.75c.338-.338.838-.45 1.276-.3 1.4.462 2.912.712 4.462.712.688 0 1.25.563 1.25 1.25V25c0 .688-.563 1.25-1.25 1.25C13.262 26.25 3.75 16.738 3.75 5c0-.688.563-1.25 1.25-1.25h4.375c.688 0 1.25.563 1.25 1.25 0 1.563.25 3.063.713 4.463.137.437.037.925-.313 1.275l-2.75 2.75z" fill="#fff"/></svg><svg fill="none" viewBox="0 0 80 80" id="icons--play_btn" xmlns="http://www.w3.org/2000/svg"><path d="M31.667 31.083v17.834c0 1.277.583 2.25 1.75 2.916 1.166.667 2.305.611 3.416-.166l13.834-8.834c1.055-.666 1.583-1.61 1.583-2.833 0-1.222-.528-2.167-1.583-2.833l-13.834-8.834c-1.11-.777-2.25-.833-3.416-.166-1.167.666-1.75 1.639-1.75 2.916zM40 73.333c-4.611 0-8.945-.875-13-2.626-4.056-1.75-7.583-4.124-10.583-7.124S11.042 57.056 9.293 53c-1.75-4.056-2.626-8.389-2.626-13 0-4.611.875-8.944 2.626-13 1.75-4.055 4.124-7.583 7.124-10.583S22.944 11.04 27 9.29c4.055-1.749 8.389-2.623 13-2.623 4.611 0 8.944.874 13 2.623 4.056 1.751 7.583 4.127 10.583 7.127S68.958 22.944 70.707 27c1.75 4.056 2.626 8.389 2.626 13 0 4.611-.875 8.944-2.626 13-1.75 4.056-4.124 7.583-7.124 10.583S57.056 68.958 53 70.707c-4.056 1.75-8.389 2.626-13 2.626z" fill="#fff"/></svg><svg fill="none" viewBox="0 0 25 24" id="icons--search" xmlns="http://www.w3.org/2000/svg"><path d="M17.972 15.73H16.97l-.355-.342a8.23 8.23 0 0 0 1.875-6.761c-.595-3.52-3.534-6.331-7.082-6.762A8.246 8.246 0 0 0 2.577 7.37a8.232 8.232 0 0 0-.379 3.701c.431 3.546 3.244 6.483 6.766 7.078a8.24 8.24 0 0 0 6.765-1.873l.343.354v1l5.384 5.382a1.34 1.34 0 0 0 1.888 0c.52-.52.52-1.368 0-1.887l-5.372-5.394zm-7.602 0a5.692 5.692 0 0 1-5.701-5.698 5.692 5.692 0 0 1 5.701-5.698 5.692 5.692 0 0 1 5.702 5.698 5.692 5.692 0 0 1-5.702 5.698z" fill="#3D348B"/></svg><svg fill="none" viewBox="0 0 108 30" id="logo" xmlns="http://www.w3.org/2000/svg"><path fill-rule="evenodd" clip-rule="evenodd" d="m101.612 30-3.628-14.422c-.438-1.73-.727-3.461-1.016-5.048h-.147c-.289 1.731-.435 3.318-.87 5.192L92.32 30h-6.242L94.353.002h4.936L108 30h-6.388zM6.387.002l3.63 14.422c.58 1.73.725 3.462 1.015 5.047h.146c.29-1.73.435-3.462.87-5.192L15.679.002h6.242L13.646 30H8.71L0 .002h6.387zm20.031 0h5.952V30h-5.952V.002zm39.631 0 3.047 17.74L71.564.002h7.984L82.596 30H76.5L75.048 8.367l-1.016 7.355L71.564 30h-4.645l-2.903-14.422-1.017-6.634v-.577h-.145L61.984 30h-6.389L58.21.002h7.84zm-18.872 0c-1.016.721-1.74 2.018-2.322 3.316-1.596 3.606.145 6.49 1.596 9.086.146.289.438.721.581 1.154 3.34 5.48 4.5 9.518 2.179 15.286L48.63 30h-7.259c.871-.722 1.741-1.73 2.177-2.885 1.743-3.894-.29-7.499-2.177-11.106-2.176-4.182-4.5-8.508-2.032-14.421.146-.577.727-1.587.727-1.587h7.111v.002z" fill="#3D348B"/></svg><svg fill="none" viewBox="0 0 109 30" id="logoFFF" xmlns="http://www.w3.org/2000/svg"><path fill-rule="evenodd" clip-rule="evenodd" d="m102.112 30-3.628-14.422c-.438-1.73-.727-3.461-1.016-5.048h-.147c-.289 1.731-.435 3.318-.87 5.192L92.82 30h-6.242L94.853.002h4.936L108.5 30h-6.388zM6.887.002l3.63 14.422c.58 1.73.725 3.462 1.015 5.047h.146c.29-1.73.435-3.462.87-5.192L16.179.002h6.242L14.146 30H9.21L.5.002h6.387zm20.031 0h5.952V30h-5.952V.002zm39.631 0 3.047 17.74L72.064.002h7.984L83.096 30H77L75.548 8.367l-1.016 7.355L72.064 30h-4.645l-2.903-14.422-1.017-6.634v-.577h-.145L62.484 30h-6.389L58.71.002h7.84zm-18.872 0c-1.016.721-1.74 2.018-2.322 3.316-1.596 3.606.145 6.49 1.596 9.086.146.289.438.721.581 1.154 3.34 5.48 4.5 9.518 2.179 15.286L49.13 30h-7.259c.871-.722 1.741-1.73 2.177-2.885 1.743-3.894-.29-7.499-2.177-11.106-2.176-4.182-4.5-8.508-2.032-14.421.146-.577.727-1.587.727-1.587h7.111v.002z" fill="#fff"/></svg></svg>