<svg width="162" height="30" fill="none" xmlns="http://www.w3.org/2000/svg"><path d="M8.496 12.408c0 .277-.037.555-.112.832a2.25 2.25 0 01-.336.768c-.16.224-.368.427-.624.608a2.83 2.83 0 01-.928.384v.096c.32.053.624.144.912.272.288.128.539.304.752.528.213.224.379.496.496.816.128.32.192.699.192 1.136 0 .576-.123 1.077-.368 1.504a3.034 3.034 0 01-.992 1.024 4.42 4.42 0 01-1.392.592 6.769 6.769 0 01-1.616.192h-.704c-.277 0-.581-.01-.912-.032-.32-.01-.65-.032-.992-.064a7.114 7.114 0 01-.912-.144V9.88a17.734 17.734 0 011.536-.176 24.811 24.811 0 011.856-.064c.523 0 1.03.043 1.52.128a4.13 4.13 0 011.328.416c.395.203.71.485.944.848.235.363.352.821.352 1.376zm-4 6.944c.267 0 .523-.032.768-.096.256-.064.48-.16.672-.288.192-.139.347-.31.464-.512.117-.203.176-.443.176-.72 0-.352-.07-.63-.208-.832a1.351 1.351 0 00-.544-.464 2.133 2.133 0 00-.752-.224 7.253 7.253 0 00-.832-.048H3.072v3.088a.991.991 0 00.256.048l.368.032c.139 0 .277.005.416.016h.384zm-.72-4.848a9 9 0 00.512-.016c.203-.01.368-.027.496-.048a2.82 2.82 0 001.04-.576c.299-.256.448-.592.448-1.008 0-.277-.053-.507-.16-.688a1.199 1.199 0 00-.432-.432 1.71 1.71 0 00-.592-.224 3.754 3.754 0 00-.704-.064c-.277 0-.533.005-.768.016-.235.01-.416.027-.544.048v2.992h.704zm15.821 6.032c-.341.245-.779.421-1.312.528a8.059 8.059 0 01-1.616.16 6.03 6.03 0 01-1.92-.304 4.228 4.228 0 01-1.584-1.008c-.458-.47-.826-1.072-1.104-1.808-.267-.747-.4-1.648-.4-2.704 0-1.099.15-2.016.448-2.752.31-.747.704-1.344 1.184-1.792a4.302 4.302 0 011.632-.976 5.548 5.548 0 011.792-.304c.64 0 1.179.043 1.616.128a5.92 5.92 0 011.104.304l-.432 1.856a3.176 3.176 0 00-.88-.256 7.807 7.807 0 00-1.216-.08c-.885 0-1.6.315-2.144.944-.533.63-.8 1.605-.8 2.928 0 .576.064 1.104.192 1.584.128.47.32.875.576 1.216.267.33.592.592.976.784.395.181.848.272 1.36.272.48 0 .886-.048 1.216-.144a3.59 3.59 0 00.864-.368l.448 1.792zM22.551 9.8h6.64v1.952h-4.448v2.608h4.048v1.952h-4.048v2.736h4.528V21h-6.72V9.8zm21.894 6.512h-4.096V21h-2.192V9.8h2.192v4.56h4.096V9.8h2.192V21h-2.192v-4.688zm5.382-.912c0-1.867.41-3.301 1.232-4.304.821-1.013 1.994-1.52 3.52-1.52.8 0 1.498.139 2.096.416a3.949 3.949 0 011.488 1.184c.394.512.688 1.125.88 1.84.192.715.288 1.51.288 2.384 0 1.867-.416 3.307-1.248 4.32-.822 1.003-1.99 1.504-3.504 1.504-.81 0-1.515-.139-2.112-.416a3.947 3.947 0 01-1.488-1.184c-.384-.512-.672-1.125-.864-1.84-.192-.715-.288-1.51-.288-2.384zm2.304 0c0 .565.048 1.088.144 1.568.096.47.24.875.432 1.216.202.341.458.608.768.8.31.192.677.288 1.104.288.778 0 1.381-.304 1.808-.912.426-.608.64-1.595.64-2.96 0-.544-.048-1.05-.144-1.52a4.087 4.087 0 00-.416-1.232 2.143 2.143 0 00-.752-.816c-.31-.203-.688-.304-1.136-.304-.779 0-1.382.315-1.808.944-.427.619-.64 1.595-.64 2.928zm17.903-2.992c0 .277-.038.555-.113.832a2.25 2.25 0 01-.336.768c-.16.224-.367.427-.623.608-.257.17-.566.299-.928.384v.096c.32.053.623.144.911.272.289.128.54.304.753.528.213.224.378.496.496.816.127.32.191.699.191 1.136 0 .576-.122 1.077-.368 1.504a3.034 3.034 0 01-.992 1.024 4.41 4.41 0 01-1.392.592 6.769 6.769 0 01-1.615.192h-.704c-.278 0-.582-.01-.912-.032-.32-.01-.651-.032-.992-.064a7.112 7.112 0 01-.912-.144V9.88a17.734 17.734 0 011.536-.176 24.818 24.818 0 011.855-.064c.523 0 1.03.043 1.52.128a4.13 4.13 0 011.328.416c.395.203.71.485.945.848.234.363.352.821.352 1.376zm-4 6.944c.266 0 .522-.032.767-.096.257-.064.48-.16.672-.288a1.66 1.66 0 00.465-.512c.117-.203.175-.443.175-.72 0-.352-.069-.63-.207-.832a1.351 1.351 0 00-.544-.464 2.133 2.133 0 00-.752-.224 7.253 7.253 0 00-.832-.048h-1.169v3.088a.991.991 0 00.257.048l.368.032c.138 0 .277.005.416.016h.383zm-.72-4.848c.149 0 .32-.005.512-.016a4.61 4.61 0 00.496-.048 2.82 2.82 0 001.04-.576c.298-.256.448-.592.448-1.008 0-.277-.054-.507-.16-.688a1.2 1.2 0 00-.433-.432 1.71 1.71 0 00-.591-.224 3.754 3.754 0 00-.705-.064c-.277 0-.533.005-.768.016-.234.01-.416.027-.544.048v2.992h.705zm7.885.896c0-1.867.41-3.301 1.232-4.304.821-1.013 1.994-1.52 3.52-1.52.8 0 1.498.139 2.096.416a3.947 3.947 0 011.488 1.184c.394.512.688 1.125.88 1.84.192.715.288 1.51.288 2.384 0 1.867-.416 3.307-1.248 4.32-.822 1.003-1.99 1.504-3.504 1.504-.811 0-1.515-.139-2.112-.416a3.949 3.949 0 01-1.488-1.184c-.384-.512-.672-1.125-.864-1.84-.192-.715-.288-1.51-.288-2.384zm2.304 0c0 .565.048 1.088.144 1.568.096.47.24.875.432 1.216.202.341.458.608.768.8.309.192.677.288 1.104.288.778 0 1.381-.304 1.808-.912.426-.608.64-1.595.64-2.96 0-.544-.048-1.05-.144-1.52a4.084 4.084 0 00-.416-1.232 2.143 2.143 0 00-.752-.816c-.31-.203-.688-.304-1.136-.304-.779 0-1.382.315-1.808.944-.427.619-.64 1.595-.64 2.928zm17.95 5.136c-.341.245-.778.421-1.312.528a8.06 8.06 0 01-1.616.16 6.03 6.03 0 01-1.92-.304 4.226 4.226 0 01-1.584-1.008c-.458-.47-.826-1.072-1.104-1.808-.266-.747-.4-1.648-.4-2.704 0-1.099.15-2.016.448-2.752.31-.747.704-1.344 1.184-1.792a4.3 4.3 0 011.632-.976 5.547 5.547 0 011.792-.304c.64 0 1.179.043 1.616.128a5.92 5.92 0 011.104.304l-.432 1.856a3.178 3.178 0 00-.88-.256 7.808 7.808 0 00-1.216-.08c-.885 0-1.6.315-2.144.944-.533.63-.8 1.605-.8 2.928 0 .576.064 1.104.192 1.584.128.47.32.875.576 1.216.267.33.592.592.976.784.395.181.848.272 1.36.272.48 0 .886-.048 1.216-.144.331-.096.619-.219.864-.368l.448 1.792zm10.812-8.784h-3.264V21h-2.192v-9.248h-3.28V9.8h8.736v1.952zm9.27 3.04l.128-1.456h-.08l-.752 1.504-4.176 6.16h-1.648V9.8h2.192v6.096l-.16 1.504h.096l.784-1.552 4.176-6.048h1.632V21h-2.192v-6.208z" fill="#3D348B"/><circle cx="147" cy="15" r="14" stroke="#3D348B" stroke-width="2"/><path d="M146.5 18.705v-3h-6.69l-.023-1.508h6.713v-2.992l3.75 3.75-3.75 3.75z" fill="#3D348B"/></svg>